<svg width="166" height="35" viewBox="0 0 166 35" fill="none" xmlns="http://www.w3.org/2000/svg">
<path d="M69.4866 6.21436L62.9325 28.8289H59.6231L54.367 10.627L48.916 28.8289L45.639 28.8615L39.3121 6.21436H42.4594L47.3912 25.3897L52.8419 6.21436H56.1515L61.3427 25.3249L66.307 6.21436H69.4866ZM77.6171 6.21436V28.8289H74.6645V6.21436H77.6171ZM102.376 28.8289H99.4236L87.5485 10.8216V28.8289H84.5959V6.18192H87.5485L99.4236 24.1569V6.18192H102.376V28.8289ZM112.308 8.61533V16.1751H120.55V18.6087H112.308V26.3955H121.523V28.8289H109.356V6.18192H121.523V8.61533H112.308ZM139.845 28.8289L134.459 19.582H130.89V28.8289H127.937V6.21436H135.238C136.947 6.21436 138.385 6.50636 139.553 7.09039C140.743 7.67442 141.63 8.46392 142.213 9.45892C142.798 10.4539 143.09 11.5895 143.09 12.8657C143.09 14.4231 142.635 15.7966 141.727 16.9863C140.84 18.176 139.499 18.9655 137.704 19.3548L143.382 28.8289H139.845ZM130.89 17.2135H135.238C136.838 17.2135 138.039 16.8241 138.839 16.0454C139.639 15.2451 140.04 14.1852 140.04 12.8657C140.04 11.5246 139.639 10.4864 138.839 9.75093C138.06 9.0155 136.86 8.64778 135.238 8.64778H130.89V17.2135ZM165.458 6.21436L158.092 20.2957V28.8289H155.139V20.2957L147.742 6.21436H151.019L156.6 17.6677L162.18 6.21436H165.458Z" fill="white"/>
<path d="M6.76913 33.6351H16.7109" stroke="white" stroke-width="2.06506"/>
<path d="M11.7403 33.6349V21.1068" stroke="white" stroke-width="2.06506" stroke-linecap="round" stroke-linejoin="round"/>
<path d="M1.76399 9.84468H21.7161" stroke="white" stroke-width="2.06506" stroke-linecap="round" stroke-linejoin="round"/>
<path d="M21.6695 9.50864C21.9378 11.2541 21.7414 13.0394 21.0999 14.6847C20.4585 16.3301 19.3949 17.7773 18.016 18.8806C16.2345 20.3059 14.021 21.0823 11.7396 21.0823C9.45822 21.0823 7.24475 20.3059 5.4633 18.8806C4.08447 17.7773 3.02075 16.3301 2.37933 14.6847C1.73791 13.0394 1.54143 11.2541 1.80968 9.50864L2.94441 2.11056C2.98374 1.85483 3.11345 1.62167 3.31002 1.45342C3.50658 1.28516 3.75696 1.19296 4.01569 1.19355H19.4635C19.7219 1.19364 19.9715 1.28616 20.1675 1.45436C20.3635 1.62255 20.4927 1.85531 20.5319 2.11056L21.6695 9.50864Z" stroke="white" stroke-width="2.06506" stroke-linecap="round" stroke-linejoin="round"/>
</svg>
