<svg width="166" height="36" viewBox="0 0 166 36" fill="none" xmlns="http://www.w3.org/2000/svg">
<path d="M69.7935 7.02082L63.2395 29.6354H59.9301L54.6739 11.4334L49.223 29.6354L45.946 29.6679L39.619 7.02082H42.7664L47.6981 26.1961L53.1489 7.02082H56.4584L61.6497 26.1314L66.6139 7.02082H69.7935ZM77.924 7.02082V29.6354H74.9714V7.02082H77.924ZM102.683 29.6354H99.7305L87.8554 11.6281V29.6354H84.9028V6.98837H87.8554L99.7305 24.9633V6.98837H102.683V29.6354ZM112.615 9.42179V16.9816H120.857V19.4151H112.615V27.202H121.83V29.6354H109.663V6.98837H121.83V9.42179H112.615ZM140.152 29.6354L134.766 20.3884H131.197V29.6354H128.244V7.02082H135.545C137.253 7.02082 138.692 7.31282 139.86 7.89685C141.05 8.48087 141.936 9.27038 142.52 10.2654C143.104 11.2604 143.397 12.396 143.397 13.6722C143.397 15.2296 142.942 16.6031 142.034 17.7928C141.147 18.9825 139.806 19.7719 138.011 20.1613L143.688 29.6354H140.152ZM131.197 18.0199H135.545C137.145 18.0199 138.346 17.6306 139.146 16.8519C139.946 16.0515 140.347 14.9917 140.347 13.6722C140.347 12.3311 139.946 11.2928 139.146 10.5574C138.367 9.82196 137.167 9.45424 135.545 9.45424H131.197V18.0199ZM165.765 7.02082L158.399 21.1022V29.6354H155.446V21.1022L148.049 7.02082H151.326L156.907 18.4742L162.487 7.02082H165.765Z" fill="#090909"/>
<path d="M7.07608 34.4415H17.0178" stroke="#090909" stroke-width="2.06506"/>
<path d="M12.0472 34.4413V21.9133" stroke="#090909" stroke-width="2.06506" stroke-linecap="round" stroke-linejoin="round"/>
<path d="M2.07094 10.6511H22.0231" stroke="#C9A969" stroke-width="2.06506" stroke-linecap="round" stroke-linejoin="round"/>
<path d="M21.9764 10.3151C22.2447 12.0605 22.0483 13.8458 21.4069 15.4912C20.7654 17.1365 19.7018 18.5837 18.3229 19.687C16.5414 21.1123 14.328 21.8888 12.0466 21.8888C9.76515 21.8888 7.55168 21.1123 5.77023 19.687C4.3914 18.5837 3.32768 17.1365 2.68626 15.4912C2.04484 13.8458 1.84836 12.0605 2.11661 10.3151L3.25134 2.91701C3.29067 2.66128 3.42038 2.42812 3.61695 2.25987C3.81351 2.09161 4.06389 1.99941 4.32262 2H19.7705C20.0288 2.00009 20.2785 2.09261 20.4744 2.26081C20.6704 2.429 20.7996 2.66176 20.8388 2.91701L21.9764 10.3151Z" stroke="#090909" stroke-width="2.06506" stroke-linecap="round" stroke-linejoin="round"/>
</svg>
