<svg width="50" height="50" viewBox="0 0 50 50" fill="none" xmlns="http://www.w3.org/2000/svg">
<rect width="50" height="50" fill="white"/>
<path d="M20.9379 38.9999H28.4045" stroke="#090909" stroke-width="2" stroke-linecap="round" stroke-linejoin="round"/>
<path d="M24.6712 39V28.187" stroke="#090909" stroke-width="2" stroke-linecap="round" stroke-linejoin="round"/>
<path d="M16.0608 18.4667H33.2814" stroke="#C9A969" stroke-width="2" stroke-linecap="round" stroke-linejoin="round"/>
<path d="M33.2416 18.1767C33.4731 19.6832 33.3035 21.2241 32.7499 22.6441C32.1963 24.0642 31.2782 25.3133 30.0882 26.2656C28.5506 27.4957 26.6402 28.1658 24.6711 28.1658C22.702 28.1658 20.7916 27.4957 19.2541 26.2656C18.064 25.3133 17.1459 24.0642 16.5923 22.6441C16.0387 21.2241 15.8691 19.6832 16.1006 18.1767L17.08 11.7915C17.114 11.5707 17.2259 11.3695 17.3956 11.2243C17.5652 11.0791 17.7813 10.9995 18.0046 11H31.3376C31.5605 11.0001 31.776 11.0799 31.9451 11.2251C32.1143 11.3703 32.2258 11.5712 32.2597 11.7915L33.2416 18.1767Z" stroke="#090909" stroke-width="2" stroke-linecap="round" stroke-linejoin="round"/>
</svg>
